<mxfile host="65bd71144e">
    <diagram id="CtvQdBRHTHKntxuVw1-N" name="Page-1">
        <mxGraphModel dx="636" dy="1251" grid="1" gridSize="10" guides="1" tooltips="1" connect="1" arrows="1" fold="1" page="1" pageScale="1" pageWidth="850" pageHeight="1100" math="0" shadow="0">
            <root>
                <mxCell id="0"/>
                <mxCell id="1" parent="0"/>
                <mxCell id="2" value="" style="rounded=0;whiteSpace=wrap;html=1;fillColor=light-dark(#FFFFFF,#121212);" vertex="1" parent="1">
                    <mxGeometry x="90" y="40" width="690" height="2810" as="geometry"/>
                </mxCell>
                <mxCell id="3" value="&lt;h1 style=&quot;box-sizing: border-box; border: 0px solid; --tw-border-spacing-x: 0; --tw-border-spacing-y: 0; --tw-translate-x: 0; --tw-translate-y: 0; --tw-rotate: 0; --tw-skew-x: 0; --tw-skew-y: 0; --tw-scale-x: 1; --tw-scale-y: 1; --tw-pan-x: ; --tw-pan-y: ; --tw-pinch-zoom: ; --tw-scroll-snap-strictness: proximity; --tw-gradient-from-position: ; --tw-gradient-via-position: ; --tw-gradient-to-position: ; --tw-ordinal: ; --tw-slashed-zero: ; --tw-numeric-figure: ; --tw-numeric-spacing: ; --tw-numeric-fraction: ; --tw-ring-inset: ; --tw-ring-offset-width: 0px; --tw-ring-offset-color: light-dark(#fff, #000000); --tw-ring-color: light-dark(rgba(59,130,246,.5), #4c89ec); --tw-ring-offset-shadow: 0 0 #0000; --tw-ring-shadow: 0 0 #0000; --tw-shadow: 0 0 #0000; --tw-shadow-colored: 0 0 #0000; --tw-blur: ; --tw-brightness: ; --tw-contrast: ; --tw-grayscale: ; --tw-hue-rotate: ; --tw-invert: ; --tw-saturate: ; --tw-sepia: ; --tw-drop-shadow: ; --tw-backdrop-blur: ; --tw-backdrop-brightness: ; --tw-backdrop-contrast: ; --tw-backdrop-grayscale: ; --tw-backdrop-hue-rotate: ; --tw-backdrop-invert: ; --tw-backdrop-opacity: ; --tw-backdrop-saturate: ; --tw-backdrop-sepia: ; --tw-contain-size: ; --tw-contain-layout: ; --tw-contain-paint: ; --tw-contain-style: ; font-size: 1.5rem; margin: 0px; font-family: &amp;quot;Nunito Sans&amp;quot;, sans-serif; line-height: 2rem; text-align: start; background-color: rgb(255, 255, 255);&quot; class=&quot;sc-6a4c5dd9-0 dXTcni&quot;&gt;&lt;font color=&quot;#000066&quot;&gt;Positive Vibes Network&lt;/font&gt;&lt;/h1&gt;" style="text;html=1;strokeColor=none;fillColor=none;align=center;verticalAlign=middle;whiteSpace=wrap;rounded=0;" vertex="1" parent="1">
                    <mxGeometry x="190" y="70" width="470" height="20" as="geometry"/>
                </mxCell>
                <mxCell id="4" value="Utilisateur&lt;div&gt;&lt;br&gt;&lt;/div&gt;" style="shape=umlActor;verticalLabelPosition=bottom;verticalAlign=top;html=1;outlineConnect=0;" vertex="1" parent="1">
                    <mxGeometry x="20" y="610" width="30" height="60" as="geometry"/>
                </mxCell>
                <mxCell id="5" value="s&#39;inscrire" style="ellipse;whiteSpace=wrap;html=1;fillColor=#dae8fc;strokeColor=#6c8ebf;" vertex="1" parent="1">
                    <mxGeometry x="130" y="160" width="120" height="80" as="geometry"/>
                </mxCell>
                <mxCell id="6" value="se déconnecter" style="ellipse;whiteSpace=wrap;html=1;fillColor=#dae8fc;strokeColor=#6c8ebf;" vertex="1" parent="1">
                    <mxGeometry x="130" y="250" width="120" height="80" as="geometry"/>
                </mxCell>
                <mxCell id="7" value="remplir un quiz&amp;nbsp;" style="ellipse;whiteSpace=wrap;html=1;fillColor=#dae8fc;strokeColor=#6c8ebf;" vertex="1" parent="1">
                    <mxGeometry x="130" y="340" width="120" height="80" as="geometry"/>
                </mxCell>
                <mxCell id="8" value="" style="endArrow=none;html=1;exitX=0.75;exitY=0.1;exitDx=0;exitDy=0;exitPerimeter=0;" edge="1" parent="1" source="4" target="5">
                    <mxGeometry width="50" height="50" relative="1" as="geometry">
                        <mxPoint x="300" y="290" as="sourcePoint"/>
                        <mxPoint x="350" y="240" as="targetPoint"/>
                    </mxGeometry>
                </mxCell>
                <mxCell id="9" value="" style="endArrow=none;html=1;exitX=0.5;exitY=0.5;exitDx=0;exitDy=0;exitPerimeter=0;" edge="1" parent="1" source="4" target="6">
                    <mxGeometry width="50" height="50" relative="1" as="geometry">
                        <mxPoint x="300" y="290" as="sourcePoint"/>
                        <mxPoint x="350" y="240" as="targetPoint"/>
                    </mxGeometry>
                </mxCell>
                <mxCell id="10" value="" style="endArrow=none;html=1;exitX=1;exitY=1;exitDx=0;exitDy=0;exitPerimeter=0;" edge="1" parent="1" source="4" target="7">
                    <mxGeometry width="50" height="50" relative="1" as="geometry">
                        <mxPoint x="300" y="290" as="sourcePoint"/>
                        <mxPoint x="350" y="240" as="targetPoint"/>
                    </mxGeometry>
                </mxCell>
                <mxCell id="66" value="consulter les résultas du quiz&amp;nbsp;" style="ellipse;whiteSpace=wrap;html=1;fillColor=#dae8fc;strokeColor=#6c8ebf;" vertex="1" parent="1">
                    <mxGeometry x="130" y="430" width="120" height="80" as="geometry"/>
                </mxCell>
                <mxCell id="67" value="Accéder au fil d’actualités" style="ellipse;whiteSpace=wrap;html=1;fillColor=#dae8fc;strokeColor=#6c8ebf;" vertex="1" parent="1">
                    <mxGeometry x="130" y="520" width="120" height="80" as="geometry"/>
                </mxCell>
                <mxCell id="68" value="gérer contenu&amp;nbsp;" style="ellipse;whiteSpace=wrap;html=1;fillColor=#dae8fc;strokeColor=#6c8ebf;" vertex="1" parent="1">
                    <mxGeometry x="130" y="690" width="120" height="80" as="geometry"/>
                </mxCell>
                <mxCell id="69" value="partager un contenu" style="ellipse;whiteSpace=wrap;html=1;fillColor=#dae8fc;strokeColor=#6c8ebf;" vertex="1" parent="1">
                    <mxGeometry x="280" y="560" width="120" height="80" as="geometry"/>
                </mxCell>
                <mxCell id="70" value="commenter un contenu&amp;nbsp;&lt;div&gt;&lt;br&gt;&lt;/div&gt;" style="ellipse;whiteSpace=wrap;html=1;fillColor=#dae8fc;strokeColor=#6c8ebf;" vertex="1" parent="1">
                    <mxGeometry x="280" y="650" width="120" height="80" as="geometry"/>
                </mxCell>
                <mxCell id="71" value="liker un contenu&lt;div&gt;&lt;br&gt;&lt;/div&gt;" style="ellipse;whiteSpace=wrap;html=1;fillColor=#dae8fc;strokeColor=#6c8ebf;" vertex="1" parent="1">
                    <mxGeometry x="280" y="740" width="120" height="80" as="geometry"/>
                </mxCell>
                <mxCell id="72" value="partager un contenu&lt;div&gt;&lt;br&gt;&lt;/div&gt;" style="ellipse;whiteSpace=wrap;html=1;fillColor=#dae8fc;strokeColor=#6c8ebf;" vertex="1" parent="1">
                    <mxGeometry x="280" y="830" width="120" height="80" as="geometry"/>
                </mxCell>
                <mxCell id="73" value="gérer reservation" style="ellipse;whiteSpace=wrap;html=1;fillColor=#dae8fc;strokeColor=#6c8ebf;" vertex="1" parent="1">
                    <mxGeometry x="120" y="940" width="120" height="80" as="geometry"/>
                </mxCell>
                <mxCell id="74" value="réserver un render vous&amp;nbsp;" style="ellipse;whiteSpace=wrap;html=1;fillColor=#dae8fc;strokeColor=#6c8ebf;" vertex="1" parent="1">
                    <mxGeometry x="280" y="920" width="120" height="80" as="geometry"/>
                </mxCell>
                <mxCell id="75" value="annuler réservation&lt;div&gt;&lt;br&gt;&lt;/div&gt;" style="ellipse;whiteSpace=wrap;html=1;fillColor=#dae8fc;strokeColor=#6c8ebf;" vertex="1" parent="1">
                    <mxGeometry x="280" y="1010" width="120" height="80" as="geometry"/>
                </mxCell>
                <mxCell id="76" value="modifier reservation" style="ellipse;whiteSpace=wrap;html=1;fillColor=#dae8fc;strokeColor=#6c8ebf;" vertex="1" parent="1">
                    <mxGeometry x="280" y="1100" width="120" height="80" as="geometry"/>
                </mxCell>
                <mxCell id="77" value="poster anonymement" style="ellipse;whiteSpace=wrap;html=1;fillColor=#dae8fc;strokeColor=#6c8ebf;" vertex="1" parent="1">
                    <mxGeometry x="120" y="1190" width="120" height="80" as="geometry"/>
                </mxCell>
                <mxCell id="78" value="consuler les ressources éducatives" style="ellipse;whiteSpace=wrap;html=1;fillColor=#dae8fc;strokeColor=#6c8ebf;" vertex="1" parent="1">
                    <mxGeometry x="120" y="1290" width="120" height="80" as="geometry"/>
                </mxCell>
                <mxCell id="79" value="rechercher les ressources&lt;div&gt;&lt;span style=&quot;color: rgb(255, 255, 255); font-family: monospace; font-size: 0px; text-align: start; text-wrap: nowrap;&quot;&gt;%3CmxGraphModel%3E%3Croot%3E%3CmxCell%20id%3D%220%22%2F%3E%3CmxCell%20id%3D%221%22%20parent%3D%220%22%2F%3E%3CmxCell%20id%3D%222%22%20value%3D%22consuler%20les%20ressources%20%C3%A9ducatives%22%20style%3D%22ellipse%3BwhiteSpace%3Dwrap%3Bhtml%3D1%3BfillColor%3D%23dae8fc%3BstrokeColor%3D%236c8ebf%3B%22%20vertex%3D%221%22%20parent%3D%221%22%3E%3CmxGeometry%20x%3D%22120%22%20y%3D%221290%22%20width%3D%22120%22%20height%3D%2280%22%20as%3D%22geometry%22%2F%3E%3C%2FmxCell%3E%3C%2Froot%3E%3C%2FmxGraphModel%3E&lt;/span&gt;&lt;span style=&quot;color: rgb(255, 255, 255); font-family: monospace; font-size: 0px; text-align: start; text-wrap: nowrap; background-color: transparent;&quot;&gt;%3CmxGraphModel%3E%3Croot%3E%3CmxCell%20id%3D%220%22%2F%3E%3CmxCell%20id%3D%221%22%20parent%3D%220%22%2F%3E%3CmxCell%20id%3D%222%22%20value%3D%22consuler%20les%20ressources%20%C3%A9ducatives%22%20style%3D%22ellipse%3BwhiteSpace%3Dwrap%3Bhtml%3D1%3BfillColor%3D%23dae8fc%3BstrokeColor%3D%236c8ebf%3B%22%20vertex%3D%221%22%20parent%3D%221%22%3E%3CmxGeometry%20x%3D%22120%22%20y%3D%221290%22%20width%3D%22120%22%20height%3D%2280%22%20as%3D%22geometry%22%2F%3E%3C%2FmxCell%3E%3C%2Froot%3E%3C%2FmxGraphModel%3E&lt;/span&gt;&lt;br&gt;&lt;/div&gt;" style="ellipse;whiteSpace=wrap;html=1;fillColor=#dae8fc;strokeColor=#6c8ebf;" vertex="1" parent="1">
                    <mxGeometry x="120" y="1400" width="120" height="80" as="geometry"/>
                </mxCell>
                <mxCell id="80" value="&lt;div&gt;consulter la citation&amp;nbsp;&lt;/div&gt;" style="ellipse;whiteSpace=wrap;html=1;fillColor=#dae8fc;strokeColor=#6c8ebf;" vertex="1" parent="1">
                    <mxGeometry x="120" y="1490" width="120" height="80" as="geometry"/>
                </mxCell>
                <mxCell id="81" value="actualiser la ciitation du jour&amp;nbsp;" style="ellipse;whiteSpace=wrap;html=1;fillColor=#dae8fc;strokeColor=#6c8ebf;" vertex="1" parent="1">
                    <mxGeometry x="120" y="1580" width="120" height="80" as="geometry"/>
                </mxCell>
                <mxCell id="82" value="&lt;div&gt;ajouter une citation aux favoris&amp;nbsp;&lt;/div&gt;" style="ellipse;whiteSpace=wrap;html=1;fillColor=#dae8fc;strokeColor=#6c8ebf;" vertex="1" parent="1">
                    <mxGeometry x="130" y="1670" width="120" height="80" as="geometry"/>
                </mxCell>
                <mxCell id="84" value="Psychologue&lt;div&gt;&lt;br&gt;&lt;/div&gt;" style="shape=umlActor;verticalLabelPosition=bottom;verticalAlign=top;html=1;outlineConnect=0;" vertex="1" parent="1">
                    <mxGeometry x="30" y="2010" width="30" height="60" as="geometry"/>
                </mxCell>
                <mxCell id="85" value="&lt;div&gt;consulter les réservations des utilisateurs&lt;/div&gt;&lt;div&gt;&lt;br&gt;&lt;/div&gt;" style="ellipse;whiteSpace=wrap;html=1;fillColor=#dae8fc;strokeColor=#6c8ebf;" vertex="1" parent="1">
                    <mxGeometry x="130" y="1870" width="120" height="80" as="geometry"/>
                </mxCell>
                <mxCell id="86" value="&lt;div&gt;gérer les reservations&amp;nbsp;&lt;/div&gt;" style="ellipse;whiteSpace=wrap;html=1;fillColor=#dae8fc;strokeColor=#6c8ebf;" vertex="1" parent="1">
                    <mxGeometry x="130" y="1970" width="120" height="80" as="geometry"/>
                </mxCell>
                <mxCell id="87" value="&lt;div&gt;confirmer une réservation&lt;/div&gt;&lt;div&gt;&lt;br&gt;&lt;/div&gt;" style="ellipse;whiteSpace=wrap;html=1;fillColor=#dae8fc;strokeColor=#6c8ebf;" vertex="1" parent="1">
                    <mxGeometry x="290" y="1920" width="120" height="80" as="geometry"/>
                </mxCell>
                <mxCell id="88" value="annuler une réservation&amp;nbsp;" style="ellipse;whiteSpace=wrap;html=1;fillColor=#dae8fc;strokeColor=#6c8ebf;" vertex="1" parent="1">
                    <mxGeometry x="290" y="2010" width="120" height="80" as="geometry"/>
                </mxCell>
                <mxCell id="89" value="&lt;div&gt;Consulter l&#39;historique des réservations&amp;nbsp;&lt;/div&gt;" style="ellipse;whiteSpace=wrap;html=1;fillColor=#dae8fc;strokeColor=#6c8ebf;" vertex="1" parent="1">
                    <mxGeometry x="130" y="2090" width="120" height="80" as="geometry"/>
                </mxCell>
                <mxCell id="90" value="Administrateur&lt;div&gt;&lt;br&gt;&lt;/div&gt;" style="shape=umlActor;verticalLabelPosition=bottom;verticalAlign=top;html=1;outlineConnect=0;" vertex="1" parent="1">
                    <mxGeometry x="30" y="2370" width="30" height="60" as="geometry"/>
                </mxCell>
                <mxCell id="93" value="&lt;div&gt;gérer les utilisateurs&lt;/div&gt;" style="ellipse;whiteSpace=wrap;html=1;fillColor=#dae8fc;strokeColor=#6c8ebf;" vertex="1" parent="1">
                    <mxGeometry x="130" y="2260" width="120" height="80" as="geometry"/>
                </mxCell>
                <mxCell id="94" value="&lt;div&gt;ajouter&lt;span style=&quot;color: rgb(255, 255, 255); font-family: monospace; font-size: 0px; text-align: start; text-wrap: nowrap; background-color: transparent;&quot;&gt;%3CmxGraphModel%3E%3Croot%3E%3CmxCell%20id%3D%220%22%2F%3E%3CmxCell%20id%3D%221%22%20parent%3D%220%22%2F%3E%3CmxCell%20id%3D%222%22%20value%3D%22%26lt%3Bdiv%26gt%3Bconsulter%20les%20r%C3%A9servations%20des%20utilisateurs%26lt%3B%2Fdiv%26gt%3B%26lt%3Bdiv%26gt%3B%26lt%3Bbr%26gt%3B%26lt%3B%2Fdiv%26gt%3B%22%20style%3D%22ellipse%3BwhiteSpace%3Dwrap%3Bhtml%3D1%3BfillColor%3D%23dae8fc%3BstrokeColor%3D%236c8ebf%3B%22%20vertex%3D%221%22%20parent%3D%221%22%3E%3CmxGeometry%20x%3D%22130%22%20y%3D%221870%22%20width%3D%22120%22%20height%3D%2280%22%20as%3D%22geometry%22%2F%3E%3C%2FmxCell%3E%3C%2Froot%3E%3C%2FmxGraphModel%3E&lt;/span&gt;&lt;/div&gt;" style="ellipse;whiteSpace=wrap;html=1;fillColor=#dae8fc;strokeColor=#6c8ebf;" vertex="1" parent="1">
                    <mxGeometry x="290" y="2210" width="120" height="80" as="geometry"/>
                </mxCell>
                <mxCell id="95" value="&lt;div&gt;supprimer*&lt;/div&gt;" style="ellipse;whiteSpace=wrap;html=1;fillColor=#dae8fc;strokeColor=#6c8ebf;" vertex="1" parent="1">
                    <mxGeometry x="290" y="2300" width="120" height="80" as="geometry"/>
                </mxCell>
                <mxCell id="96" value="&lt;div&gt;modifier&lt;/div&gt;" style="ellipse;whiteSpace=wrap;html=1;fillColor=#dae8fc;strokeColor=#6c8ebf;" vertex="1" parent="1">
                    <mxGeometry x="290" y="2390" width="120" height="80" as="geometry"/>
                </mxCell>
                <mxCell id="97" value="gérer les psychologues" style="ellipse;whiteSpace=wrap;html=1;fillColor=#dae8fc;strokeColor=#6c8ebf;" vertex="1" parent="1">
                    <mxGeometry x="130" y="2480" width="120" height="80" as="geometry"/>
                </mxCell>
                <mxCell id="98" value="gérer les contenus" style="ellipse;whiteSpace=wrap;html=1;fillColor=#dae8fc;strokeColor=#6c8ebf;" vertex="1" parent="1">
                    <mxGeometry x="130" y="2580" width="120" height="80" as="geometry"/>
                </mxCell>
                <mxCell id="99" value="" style="endArrow=none;html=1;exitX=1;exitY=0.3333333333333333;exitDx=0;exitDy=0;exitPerimeter=0;entryX=0;entryY=0.5;entryDx=0;entryDy=0;" edge="1" parent="1" source="4" target="68">
                    <mxGeometry width="50" height="50" relative="1" as="geometry">
                        <mxPoint x="160" y="780" as="sourcePoint"/>
                        <mxPoint x="210" y="730" as="targetPoint"/>
                    </mxGeometry>
                </mxCell>
                <mxCell id="100" value="" style="endArrow=none;html=1;" edge="1" parent="1" source="4" target="73">
                    <mxGeometry width="50" height="50" relative="1" as="geometry">
                        <mxPoint x="140" y="760" as="sourcePoint"/>
                        <mxPoint x="190" y="710" as="targetPoint"/>
                    </mxGeometry>
                </mxCell>
                <mxCell id="101" value="" style="endArrow=none;html=1;exitX=0.5;exitY=0.5;exitDx=0;exitDy=0;exitPerimeter=0;entryX=0;entryY=0;entryDx=0;entryDy=0;" edge="1" parent="1" source="4" target="77">
                    <mxGeometry width="50" height="50" relative="1" as="geometry">
                        <mxPoint x="140" y="860" as="sourcePoint"/>
                        <mxPoint x="190" y="810" as="targetPoint"/>
                    </mxGeometry>
                </mxCell>
                <mxCell id="102" value="" style="endArrow=none;html=1;exitX=0;exitY=1;exitDx=0;exitDy=0;exitPerimeter=0;entryX=0;entryY=0.5;entryDx=0;entryDy=0;" edge="1" parent="1" source="4" target="78">
                    <mxGeometry width="50" height="50" relative="1" as="geometry">
                        <mxPoint x="140" y="940" as="sourcePoint"/>
                        <mxPoint x="190" y="890" as="targetPoint"/>
                    </mxGeometry>
                </mxCell>
                <mxCell id="103" value="" style="endArrow=none;html=1;exitX=0.25;exitY=0.1;exitDx=0;exitDy=0;exitPerimeter=0;entryX=0;entryY=0.5;entryDx=0;entryDy=0;" edge="1" parent="1" source="4" target="79">
                    <mxGeometry width="50" height="50" relative="1" as="geometry">
                        <mxPoint x="110" y="970" as="sourcePoint"/>
                        <mxPoint x="160" y="920" as="targetPoint"/>
                    </mxGeometry>
                </mxCell>
                <mxCell id="104" value="" style="endArrow=none;html=1;entryX=0;entryY=0;entryDx=0;entryDy=0;" edge="1" parent="1" target="80">
                    <mxGeometry width="50" height="50" relative="1" as="geometry">
                        <mxPoint x="30" y="610" as="sourcePoint"/>
                        <mxPoint x="160" y="1000" as="targetPoint"/>
                    </mxGeometry>
                </mxCell>
                <mxCell id="105" value="" style="endArrow=none;html=1;entryX=0;entryY=0;entryDx=0;entryDy=0;" edge="1" parent="1" target="81">
                    <mxGeometry width="50" height="50" relative="1" as="geometry">
                        <mxPoint x="30" y="620" as="sourcePoint"/>
                        <mxPoint x="150" y="1180" as="targetPoint"/>
                    </mxGeometry>
                </mxCell>
                <mxCell id="106" value="" style="endArrow=none;html=1;entryX=0;entryY=0.5;entryDx=0;entryDy=0;" edge="1" parent="1" target="82">
                    <mxGeometry width="50" height="50" relative="1" as="geometry">
                        <mxPoint x="30" y="650" as="sourcePoint"/>
                        <mxPoint x="150" y="1180" as="targetPoint"/>
                    </mxGeometry>
                </mxCell>
                <mxCell id="109" value="&amp;lt;&amp;lt;extend&amp;gt;&amp;gt;" style="html=1;verticalAlign=bottom;labelBackgroundColor=none;endArrow=open;endFill=0;dashed=1;entryX=1;entryY=0;entryDx=0;entryDy=0;exitX=0;exitY=0.5;exitDx=0;exitDy=0;" edge="1" parent="1" source="69" target="68">
                    <mxGeometry width="160" relative="1" as="geometry">
                        <mxPoint x="130" y="530" as="sourcePoint"/>
                        <mxPoint x="290" y="530" as="targetPoint"/>
                    </mxGeometry>
                </mxCell>
                <mxCell id="110" value="&amp;lt;&amp;lt;extend&amp;gt;&amp;gt;" style="html=1;verticalAlign=bottom;labelBackgroundColor=none;endArrow=open;endFill=0;dashed=1;entryX=1;entryY=0.5;entryDx=0;entryDy=0;exitX=0;exitY=1;exitDx=0;exitDy=0;" edge="1" parent="1" source="70" target="68">
                    <mxGeometry width="160" relative="1" as="geometry">
                        <mxPoint x="180" y="660" as="sourcePoint"/>
                        <mxPoint x="340" y="660" as="targetPoint"/>
                    </mxGeometry>
                </mxCell>
                <mxCell id="111" value="&amp;lt;&amp;lt;extend&amp;gt;&amp;gt;" style="html=1;verticalAlign=bottom;labelBackgroundColor=none;endArrow=open;endFill=0;dashed=1;entryX=1;entryY=1;entryDx=0;entryDy=0;exitX=0;exitY=0;exitDx=0;exitDy=0;" edge="1" parent="1" source="71" target="68">
                    <mxGeometry width="160" relative="1" as="geometry">
                        <mxPoint x="180" y="660" as="sourcePoint"/>
                        <mxPoint x="340" y="660" as="targetPoint"/>
                    </mxGeometry>
                </mxCell>
                <mxCell id="112" value="&amp;lt;&amp;lt;extend&amp;gt;&amp;gt;" style="html=1;verticalAlign=bottom;labelBackgroundColor=none;endArrow=open;endFill=0;dashed=1;entryX=0.5;entryY=1;entryDx=0;entryDy=0;" edge="1" parent="1" source="72" target="68">
                    <mxGeometry width="160" relative="1" as="geometry">
                        <mxPoint x="180" y="740" as="sourcePoint"/>
                        <mxPoint x="340" y="740" as="targetPoint"/>
                    </mxGeometry>
                </mxCell>
                <mxCell id="113" value="&amp;lt;&amp;lt;extend&amp;gt;&amp;gt;" style="html=1;verticalAlign=bottom;labelBackgroundColor=none;endArrow=open;endFill=0;dashed=1;entryX=0.5;entryY=0;entryDx=0;entryDy=0;" edge="1" parent="1" source="74" target="73">
                    <mxGeometry width="160" relative="1" as="geometry">
                        <mxPoint x="180" y="1050" as="sourcePoint"/>
                        <mxPoint x="340" y="1050" as="targetPoint"/>
                    </mxGeometry>
                </mxCell>
                <mxCell id="114" value="&amp;lt;&amp;lt;extend&amp;gt;&amp;gt;" style="html=1;verticalAlign=bottom;labelBackgroundColor=none;endArrow=open;endFill=0;dashed=1;entryX=1;entryY=0.5;entryDx=0;entryDy=0;exitX=0;exitY=0;exitDx=0;exitDy=0;" edge="1" parent="1" source="75" target="73">
                    <mxGeometry width="160" relative="1" as="geometry">
                        <mxPoint x="180" y="1050" as="sourcePoint"/>
                        <mxPoint x="340" y="1050" as="targetPoint"/>
                    </mxGeometry>
                </mxCell>
                <mxCell id="115" value="&amp;lt;&amp;lt;extend&amp;gt;&amp;gt;" style="html=1;verticalAlign=bottom;labelBackgroundColor=none;endArrow=open;endFill=0;dashed=1;entryX=0.5;entryY=1;entryDx=0;entryDy=0;" edge="1" parent="1" source="76" target="73">
                    <mxGeometry width="160" relative="1" as="geometry">
                        <mxPoint x="180" y="1050" as="sourcePoint"/>
                        <mxPoint x="340" y="1050" as="targetPoint"/>
                    </mxGeometry>
                </mxCell>
                <mxCell id="116" value="" style="endArrow=none;html=1;exitX=0.5;exitY=0;exitDx=0;exitDy=0;exitPerimeter=0;entryX=0;entryY=0;entryDx=0;entryDy=0;" edge="1" parent="1" source="84" target="85">
                    <mxGeometry width="50" height="50" relative="1" as="geometry">
                        <mxPoint x="260" y="2090" as="sourcePoint"/>
                        <mxPoint x="310" y="2040" as="targetPoint"/>
                    </mxGeometry>
                </mxCell>
                <mxCell id="117" value="" style="endArrow=none;html=1;exitX=0.5;exitY=0.5;exitDx=0;exitDy=0;exitPerimeter=0;entryX=0;entryY=0;entryDx=0;entryDy=0;" edge="1" parent="1" source="84" target="86">
                    <mxGeometry width="50" height="50" relative="1" as="geometry">
                        <mxPoint x="260" y="2090" as="sourcePoint"/>
                        <mxPoint x="310" y="2040" as="targetPoint"/>
                    </mxGeometry>
                </mxCell>
                <mxCell id="118" value="" style="endArrow=none;html=1;exitX=0.5;exitY=0.5;exitDx=0;exitDy=0;exitPerimeter=0;entryX=0;entryY=0;entryDx=0;entryDy=0;" edge="1" parent="1" source="84" target="89">
                    <mxGeometry width="50" height="50" relative="1" as="geometry">
                        <mxPoint x="260" y="2090" as="sourcePoint"/>
                        <mxPoint x="310" y="2040" as="targetPoint"/>
                    </mxGeometry>
                </mxCell>
                <mxCell id="119" value="" style="endArrow=none;html=1;exitX=1;exitY=0.3333333333333333;exitDx=0;exitDy=0;exitPerimeter=0;entryX=0;entryY=0.5;entryDx=0;entryDy=0;" edge="1" parent="1" source="90" target="93">
                    <mxGeometry width="50" height="50" relative="1" as="geometry">
                        <mxPoint x="260" y="2090" as="sourcePoint"/>
                        <mxPoint x="310" y="2040" as="targetPoint"/>
                    </mxGeometry>
                </mxCell>
                <mxCell id="120" value="" style="endArrow=none;html=1;exitX=0.75;exitY=0.1;exitDx=0;exitDy=0;exitPerimeter=0;entryX=0.5;entryY=0;entryDx=0;entryDy=0;" edge="1" parent="1" source="90" target="97">
                    <mxGeometry width="50" height="50" relative="1" as="geometry">
                        <mxPoint x="260" y="2110" as="sourcePoint"/>
                        <mxPoint x="310" y="2060" as="targetPoint"/>
                    </mxGeometry>
                </mxCell>
                <mxCell id="121" value="" style="endArrow=none;html=1;exitX=0;exitY=1;exitDx=0;exitDy=0;exitPerimeter=0;entryX=0;entryY=0;entryDx=0;entryDy=0;" edge="1" parent="1" source="90" target="98">
                    <mxGeometry width="50" height="50" relative="1" as="geometry">
                        <mxPoint x="260" y="2500" as="sourcePoint"/>
                        <mxPoint x="310" y="2450" as="targetPoint"/>
                    </mxGeometry>
                </mxCell>
                <mxCell id="122" value="&amp;lt;&amp;lt;extend&amp;gt;&amp;gt;" style="html=1;verticalAlign=bottom;labelBackgroundColor=none;endArrow=open;endFill=0;dashed=1;entryX=0.5;entryY=1;entryDx=0;entryDy=0;" edge="1" parent="1" source="96" target="93">
                    <mxGeometry width="160" relative="1" as="geometry">
                        <mxPoint x="200" y="2480" as="sourcePoint"/>
                        <mxPoint x="360" y="2480" as="targetPoint"/>
                    </mxGeometry>
                </mxCell>
                <mxCell id="123" value="&amp;lt;&amp;lt;extend&amp;gt;&amp;gt;" style="html=1;verticalAlign=bottom;labelBackgroundColor=none;endArrow=open;endFill=0;dashed=1;entryX=0.95;entryY=0.672;entryDx=0;entryDy=0;entryPerimeter=0;exitX=0;exitY=0.5;exitDx=0;exitDy=0;" edge="1" parent="1" source="95" target="93">
                    <mxGeometry width="160" relative="1" as="geometry">
                        <mxPoint x="200" y="2480" as="sourcePoint"/>
                        <mxPoint x="360" y="2480" as="targetPoint"/>
                    </mxGeometry>
                </mxCell>
                <mxCell id="125" value="&amp;lt;&amp;lt;extend&amp;gt;&amp;gt;" style="html=1;verticalAlign=bottom;labelBackgroundColor=none;endArrow=open;endFill=0;dashed=1;entryX=0.783;entryY=0.159;entryDx=0;entryDy=0;entryPerimeter=0;exitX=0;exitY=0.5;exitDx=0;exitDy=0;" edge="1" parent="1" source="94" target="93">
                    <mxGeometry width="160" relative="1" as="geometry">
                        <mxPoint x="210" y="2420" as="sourcePoint"/>
                        <mxPoint x="370" y="2420" as="targetPoint"/>
                    </mxGeometry>
                </mxCell>
                <mxCell id="126" value="&amp;lt;&amp;lt;extend&amp;gt;&amp;gt;" style="html=1;verticalAlign=bottom;labelBackgroundColor=none;endArrow=open;endFill=0;dashed=1;entryX=1;entryY=0;entryDx=0;entryDy=0;exitX=0;exitY=0.5;exitDx=0;exitDy=0;" edge="1" parent="1" source="87" target="86">
                    <mxGeometry width="160" relative="1" as="geometry">
                        <mxPoint x="190" y="2170" as="sourcePoint"/>
                        <mxPoint x="350" y="2170" as="targetPoint"/>
                    </mxGeometry>
                </mxCell>
                <mxCell id="127" value="&amp;lt;&amp;lt;extend&amp;gt;&amp;gt;" style="html=1;verticalAlign=bottom;labelBackgroundColor=none;endArrow=open;endFill=0;dashed=1;entryX=1;entryY=1;entryDx=0;entryDy=0;" edge="1" parent="1" source="88" target="86">
                    <mxGeometry width="160" relative="1" as="geometry">
                        <mxPoint x="190" y="2170" as="sourcePoint"/>
                        <mxPoint x="350" y="2170" as="targetPoint"/>
                    </mxGeometry>
                </mxCell>
                <mxCell id="128" value="" style="endArrow=none;html=1;entryX=0;entryY=1;entryDx=0;entryDy=0;" edge="1" parent="1" target="67">
                    <mxGeometry width="50" height="50" relative="1" as="geometry">
                        <mxPoint x="40" y="630" as="sourcePoint"/>
                        <mxPoint x="80" y="880" as="targetPoint"/>
                    </mxGeometry>
                </mxCell>
            </root>
        </mxGraphModel>
    </diagram>
</mxfile>